<svg xmlns="http://www.w3.org/2000/svg" width="36" height="36" viewBox="0 0 36 36"><defs><style>.a{fill:#2b2b2b;}</style></defs><g transform="translate(5.25 3)"><path class="a" d="M11.975,29.95a5.429,5.429,0,0,1-2.57-1.1,2.327,2.327,0,0,1-1.044-1.759c0-.756.693-1.1,1.334-1.25a38.932,38.932,0,0,1,6.07,0c.641.149,1.334.494,1.334,1.25a2.33,2.33,0,0,1-1.042,1.76,5.453,5.453,0,0,1-2.569,1.1,5.993,5.993,0,0,1-.767.05A5.5,5.5,0,0,1,11.975,29.95ZM5.646,23.621A6.8,6.8,0,0,1,1.3,21.5,5.422,5.422,0,0,1,0,17.933a5.052,5.052,0,0,1,1.1-3.465,5.7,5.7,0,0,0,1.594-4.274V9.555A8.437,8.437,0,0,1,4.616,3.768,10.61,10.61,0,0,1,12.683,0h.135a10.562,10.562,0,0,1,8.2,3.937,8.318,8.318,0,0,1,1.793,5.619v.639A5.833,5.833,0,0,0,24.4,14.468a5.045,5.045,0,0,1,1.1,3.465A5.421,5.421,0,0,1,24.206,21.5a6.809,6.809,0,0,1-4.35,2.12c-2.357.2-4.716.37-7.105.37A62.533,62.533,0,0,1,5.646,23.621Z"/></g></svg>