<svg xmlns="http://www.w3.org/2000/svg" width="28" height="28" viewBox="0 0 28 28"><defs><style>.a{fill:#918868;}</style></defs><g transform="translate(2.005 2.005)"><path class="a" d="M11.5,23a11.5,11.5,0,0,1,0-23,11.5,11.5,0,0,1,8.135,19.635A11.427,11.427,0,0,1,11.5,23ZM11.1,5.67a.863.863,0,0,0-.862.862v5.807a.859.859,0,0,0,.425.736l4.509,2.691a.879.879,0,0,0,.448.127.857.857,0,0,0,.736-.426.869.869,0,0,0-.3-1.184l-4.093-2.438V6.532A.864.864,0,0,0,11.1,5.67Z" transform="translate(-0.005 -0.005)"/></g></svg>