<svg xmlns="http://www.w3.org/2000/svg" width="32" height="32" viewBox="0 0 32 32"><defs><style>.a{fill:#ff6868;}</style></defs><g transform="translate(2.667 2.667)"><path class="a" d="M13.5,27a13.439,13.439,0,0,1-6.642-1.757,2.968,2.968,0,0,0-1.494-.573,1.638,1.638,0,0,0-.517.085l-2.728.812a1.017,1.017,0,0,1-.305.048.836.836,0,0,1-.675-.323.874.874,0,0,1-.127-.78l.905-3.029a1.412,1.412,0,0,0-.095-1.216A14.265,14.265,0,0,1,0,13.521,13.713,13.713,0,0,1,3.822,4.094,13.351,13.351,0,0,1,13.527,0a13.318,13.318,0,0,1,9.612,4.042,13.578,13.578,0,0,1,2.834,4.3A13.351,13.351,0,0,1,27,13.479a13.687,13.687,0,0,1-1.168,5.632,12.958,12.958,0,0,1-3.071,4.257A13.831,13.831,0,0,1,13.5,27Zm6.2-15.2a1.73,1.73,0,1,0,1.728,1.73A1.731,1.731,0,0,0,19.7,11.8Zm-6.249,0a1.711,1.711,0,0,0-1.7,1.717A1.728,1.728,0,1,0,13.473,11.8h-.026Zm-6.2,0a1.73,1.73,0,1,0,1.728,1.73A1.732,1.732,0,0,0,7.25,11.8Z" transform="translate(0.333 0.333)"/></g></svg>