<svg xmlns="http://www.w3.org/2000/svg" width="36" height="36" viewBox="0 0 36 36"><defs><style>.a{fill:#2b2b2b;}</style></defs><g transform="translate(3.752 3)"><path class="a" d="M15.293,30H13.207a3.1,3.1,0,0,1-3.187-3.075A2.856,2.856,0,0,0,7.2,24.195a2.371,2.371,0,0,0-1.349.346,3.245,3.245,0,0,1-1.625.45A3.183,3.183,0,0,1,1.5,23.431L.439,21.63a3.005,3.005,0,0,1-.031-3.075A3.162,3.162,0,0,1,1.634,17.37a2.479,2.479,0,0,0,.967-.96,2.674,2.674,0,0,0,.284-2.048A2.755,2.755,0,0,0,1.6,12.66,3.068,3.068,0,0,1,.469,8.415L1.5,6.645A3.184,3.184,0,0,1,5.819,5.505a2.841,2.841,0,0,0,1.345.336,2.938,2.938,0,0,0,2.5-1.371,2.308,2.308,0,0,0,.354-1.32,2.683,2.683,0,0,1,.429-1.589A3.3,3.3,0,0,1,13.161,0h2.161a3.231,3.231,0,0,1,2.73,1.561,2.672,2.672,0,0,1,.413,1.589,2.317,2.317,0,0,0,.352,1.32,2.946,2.946,0,0,0,2.508,1.371,2.888,2.888,0,0,0,1.356-.336,3.166,3.166,0,0,1,4.308,1.139l1.026,1.77a3.041,3.041,0,0,1-1.134,4.246,2.744,2.744,0,0,0-1.28,1.707,2.656,2.656,0,0,0,.3,2.043,2.356,2.356,0,0,0,.95.96,3.46,3.46,0,0,1,1.242,1.184,3.047,3.047,0,0,1-.03,3.075l-1.073,1.8a3.148,3.148,0,0,1-4.339,1.11,2.431,2.431,0,0,0-1.349-.346,2.849,2.849,0,0,0-2.836,2.73A3.092,3.092,0,0,1,15.293,30ZM14.266,10.77a4.3,4.3,0,0,0-4.354,4.244,4.145,4.145,0,0,0,1.274,3,4.4,4.4,0,0,0,3.08,1.232,4.232,4.232,0,0,0,3.057-7.236A4.315,4.315,0,0,0,14.266,10.77Z"/></g></svg>